<svg width="24" height="24" viewBox="0 0 24 24" fill="none" xmlns="http://www.w3.org/2000/svg">
<g clip-path="url(#clip0_1_11077)">
<mask id="mask0_1_11077" style="mask-type:luminance" maskUnits="userSpaceOnUse" x="0" y="0" width="24" height="24">
<path d="M24 0H0V24H24V0Z" fill="white"/>
</mask>
<g mask="url(#mask0_1_11077)">
<path d="M12 11.5C10.9 11.5 10 10.6 10 9.5C10 8.4 10.9 7.5 12 7.5C13.1 7.5 14 8.4 14 9.5C14 10.6 13.1 11.5 12 11.5ZM12 6C10.07 6 8.5 7.57 8.5 9.5C8.5 11.43 10.07 13 12 13C13.93 13 15.5 11.43 15.5 9.5C15.5 7.57 13.93 6 12 6ZM18.33 17.66C17.31 15.5 14.85 14.02 12 14.02C9.15 14.02 6.69 15.5 5.67 17.66C4.27 16.11 3.5 14.09 3.5 12C3.5 7.31 7.31 3.5 12 3.5C16.69 3.5 20.5 7.31 20.5 12C20.5 14.09 19.72 16.1 18.33 17.66ZM6.86 18.76C7.46 16.89 9.58 15.52 12 15.52C14.42 15.52 16.54 16.89 17.14 18.76C15.71 19.85 13.93 20.51 12 20.51C10.07 20.51 8.29 19.85 6.86 18.76ZM12 2C6.48 2 2 6.48 2 12C2 17.52 6.48 22 12 22C17.52 22 22 17.52 22 12C22 6.48 17.52 2 12 2Z" fill="black"/>
</g>
</g>
<defs>
<clipPath id="clip0_1_11077">
<rect width="24" height="24" fill="white"/>
</clipPath>
</defs>
</svg>
