<svg width="24" height="24" viewBox="0 0 24 24" fill="none" xmlns="http://www.w3.org/2000/svg">
<g clip-path="url(#clip0_1_11083)">
<mask id="mask0_1_11083" style="mask-type:luminance" maskUnits="userSpaceOnUse" x="0" y="0" width="24" height="24">
<path d="M24 0H0V24H24V0Z" fill="white"/>
</mask>
<g mask="url(#mask0_1_11083)">
<path d="M9 19.5C9 20.33 8.33 21 7.5 21C6.67 21 6 20.33 6 19.5C6 18.67 6.67 18 7.5 18C8.33 18 9 18.67 9 19.5ZM20 19.5C20 20.33 19.33 21 18.5 21C17.67 21 17 20.33 17 19.5C17 18.67 17.67 18 18.5 18C19.33 18 20 18.67 20 19.5ZM18.76 12.07C18.73 12.32 18.52 12.51 18.26 12.51H7.04L6.22 6.51002H19.25C19.34 6.51002 19.41 6.55002 19.44 6.59002C19.48 6.63002 19.51 6.70002 19.5 6.79002L18.77 12.07H18.76ZM19.24 5.01002H5.98L5.91 4.53002C5.79 3.66002 5.05 3.02002 4.18 3.02002H2.75C2.34 3.02002 2 3.36002 2 3.77002C2 4.18002 2.34 4.52002 2.75 4.52002H4.18C4.3 4.52002 4.41 4.61002 4.43 4.74002L4.52 5.02002H4.5L5.73 14.02L5.91 15.51C6.03 16.37 6.77 17.02 7.64 17.02H19.25C19.66 17.02 20 16.68 20 16.27C20 15.86 19.66 15.52 19.25 15.52H7.64C7.52 15.52 7.41 15.43 7.39 15.3L7.21 14.01H18.26C19.27 14.01 20.12 13.26 20.25 12.26L20.98 7.00002C21.05 6.50002 20.9 5.99002 20.56 5.61002C20.23 5.23002 19.75 5.01002 19.24 5.01002Z" fill="black"/>
</g>
</g>
<defs>
<clipPath id="clip0_1_11083">
<rect width="24" height="24" fill="white"/>
</clipPath>
</defs>
</svg>
