<svg width="52" height="50" viewBox="0 0 52 50" fill="none" xmlns="http://www.w3.org/2000/svg">
<path fill-rule="evenodd" clip-rule="evenodd" d="M31.0061 19.0747C31.0061 22.3826 29.4994 23.7478 25.406 23.7872L23.046 23.8134C22.9126 23.8134 22.806 23.7741 22.7126 23.6822C22.6193 23.5903 22.5793 23.4853 22.5793 23.3671V14.5066C22.5793 14.2572 22.7793 14.0603 23.0326 14.0603H24.2727C28.8727 14.0603 30.9928 15.7668 30.9928 19.0747M40.9529 34.9186C39.5263 34.1967 38.2862 32.9627 37.1795 31.5319C35.7395 29.6942 34.6062 27.5939 33.7795 25.9137C33.6728 25.7037 33.7528 25.4543 33.9528 25.3361C36.8462 23.6822 38.3396 20.9781 38.3396 18.4315C38.3396 12.8002 33.3528 10.713 27.9127 10.713H13.1258C12.8991 10.713 12.7124 10.8705 12.6724 11.0937C12.5924 11.5925 12.5524 12.3407 12.5524 12.7739C12.5524 12.9577 12.6591 13.1152 12.8458 13.1808L15.0858 14.0603C15.6992 14.3229 16.0058 14.9792 16.0058 15.583V27.2133L15.8858 32.4639C15.8458 33.4878 15.2725 34.6298 14.3791 34.8136L12.8725 35.1549C12.6591 35.2074 12.5124 35.3781 12.5124 35.5881C12.5124 36.0475 12.5524 36.6907 12.5924 37.1764C12.6058 37.3996 12.8058 37.5833 13.0458 37.5833H25.3793C25.6193 37.5833 25.806 37.4127 25.8327 37.1895C25.886 36.6776 25.8993 35.8769 25.9127 35.4043C25.9127 35.2074 25.7927 35.0368 25.606 34.9711L23.526 34.2754C22.8726 34.0916 22.7126 33.711 22.7126 32.9496L22.606 27.397C22.606 27.2658 22.646 27.1608 22.7393 27.0689C22.8326 26.977 22.9393 26.9376 23.0593 26.9376H25.6593L26.1527 26.9113C26.3394 26.9113 26.5127 27.0032 26.5927 27.1739C28.1927 30.6787 30.1661 33.9735 32.3795 35.785C34.8995 37.859 37.4462 38.5416 40.0596 38.6072V38.6466C37.3262 48.6754 13.3525 47.6909 10.8724 38.6466C8.48571 29.9042 7.69903 18.8384 7.03235 9.85978C6.39234 1.89188 44.5263 1.87876 43.8863 9.85978C43.313 17.4733 42.6063 26.977 40.9396 34.9055L40.9529 34.9186ZM47.4197 38.7254C48.6997 32.5558 52.0998 11.1724 50.8331 7.07692C47.9131 -2.36116 3.04561 -2.36116 0.125559 7.09005C-0.527785 9.19032 1.48558 30.915 3.45895 38.7516C7.05902 53.086 44.1797 54.3986 47.4197 38.7516V38.7254Z" fill="#ADD15A"/>
</svg>
