<svg width="30" height="30" viewBox="0 0 30 30" fill="none" xmlns="http://www.w3.org/2000/svg">
<g clip-path="url(#clip0_52_6685)">
<path d="M9.40698 16.5197H10.3726V21.3994H11.3064V16.5197H12.272V15.6909H9.40698V16.5197Z" fill="white"/>
<path d="M14.1722 20.386C14.0935 20.4769 14.0091 20.5519 13.9144 20.611C13.8216 20.671 13.7438 20.7 13.6829 20.7C13.606 20.7 13.5488 20.6775 13.5122 20.6335C13.4785 20.5885 13.4616 20.5172 13.4616 20.4169V17.1863H12.6338V20.7075C12.6338 20.9588 12.6835 21.1453 12.7791 21.2709C12.8775 21.3975 13.02 21.4584 13.2122 21.4584C13.3669 21.4584 13.5272 21.4144 13.6941 21.3244C13.86 21.2363 14.0185 21.105 14.1722 20.9344V21.3966H15V17.1844H14.1722V20.386Z" fill="white"/>
<path d="M17.1976 17.1356C17.0691 17.1356 16.9416 17.1684 16.8151 17.2359C16.6904 17.3016 16.5732 17.4 16.4597 17.5294V15.6909H15.6226V21.4003H16.4597V21.0769C16.5676 21.2063 16.6866 21.3009 16.8132 21.3619C16.9397 21.4238 17.0832 21.4528 17.2463 21.4528C17.4919 21.4528 17.6813 21.375 17.8088 21.2156C17.9382 21.0563 18.0038 20.8284 18.0038 20.5303V18.1931C18.0038 17.8481 17.9363 17.5856 17.7957 17.4056C17.6597 17.2256 17.4601 17.1356 17.1976 17.1356ZM17.1535 20.4122C17.1535 20.5481 17.1282 20.6438 17.0804 20.7019C17.0326 20.7619 16.9585 20.7909 16.8572 20.7909C16.7869 20.7909 16.7213 20.7759 16.6576 20.745C16.5938 20.7159 16.5282 20.6634 16.4607 20.5969V17.9728C16.5179 17.9147 16.5741 17.8716 16.6313 17.8444C16.6894 17.8163 16.7466 17.8041 16.8066 17.8041C16.9172 17.8041 17.0044 17.8406 17.0654 17.9138C17.1244 17.9869 17.1535 18.0956 17.1535 18.2372V20.4122Z" fill="white"/>
<path d="M14.88 11.3991C15.0065 11.3991 15.1059 11.3634 15.1809 11.2941C15.255 11.2219 15.2925 11.1234 15.2925 11.0006V8.47124C15.2925 8.36999 15.255 8.28749 15.1781 8.22468C15.1022 8.1628 15.0028 8.13187 14.88 8.13187C14.7656 8.13187 14.6728 8.16187 14.6025 8.22468C14.5322 8.28749 14.4956 8.36999 14.4956 8.47124V10.9987C14.4956 11.1253 14.5303 11.2228 14.5959 11.2941C14.6615 11.3644 14.7553 11.3991 14.88 11.3991Z" fill="white"/>
<path d="M15 0C6.71625 0 0 6.71531 0 15C0 23.2847 6.71625 30 15 30C23.2838 30 30 23.2838 30 15C30 6.71625 23.2838 0 15 0ZM16.9988 7.44562H17.9297V11.0025C17.9297 11.1122 17.9513 11.1919 17.9897 11.2406C18.0272 11.2903 18.0919 11.3147 18.1791 11.3147C18.2466 11.3147 18.3337 11.2819 18.4387 11.2172C18.5428 11.1525 18.6394 11.0691 18.7256 10.9669V7.44562H19.6584V12.0853H18.7256V11.5734C18.555 11.7619 18.3769 11.9072 18.1894 12.0047C18.0037 12.1031 17.8237 12.1528 17.6475 12.1528C17.4309 12.1528 17.2697 12.0834 17.16 11.9456C17.0513 11.8078 16.9969 11.6006 16.9969 11.3231V7.44562H16.9988ZM13.5356 8.50688C13.5356 8.14688 13.6603 7.86094 13.9125 7.64813C14.1628 7.43531 14.5012 7.32844 14.9241 7.32844C15.3094 7.32844 15.6262 7.44094 15.8728 7.66594C16.1184 7.89 16.2422 8.17969 16.2422 8.53312V10.9303C16.2422 11.3269 16.1213 11.6381 15.8803 11.8641C15.6366 12.09 15.3056 12.2025 14.8809 12.2025C14.4741 12.2025 14.1469 12.0863 13.9012 11.8538C13.6575 11.6203 13.5356 11.3063 13.5356 10.9125V8.50688ZM10.9959 5.79563L11.6775 8.30906H11.7431L12.3909 5.79563H13.4587L12.2372 9.47531V12.0853H11.1872V9.59344L9.9375 5.79656C9.93656 5.79563 10.9959 5.79563 10.9959 5.79563ZM21.4088 22.6594C20.7281 23.3381 14.9972 23.3531 14.9972 23.3531C14.9972 23.3531 9.26531 23.3391 8.58375 22.6594C7.90125 21.9778 7.90031 18.6253 7.90031 18.6C7.90031 18.5803 7.90219 15.2213 8.58375 14.5406C9.26625 13.8609 14.9972 13.8525 14.9972 13.8534C14.9972 13.8534 20.7291 13.8619 21.4088 14.5416C22.0912 15.2231 22.0997 18.5812 22.0997 18.6009C22.0997 18.6 22.0941 21.9759 21.4088 22.6594Z" fill="white"/>
<path d="M19.6978 17.0831C19.3266 17.0831 19.0247 17.1975 18.7913 17.4281C18.5569 17.6588 18.4397 17.9559 18.4397 18.3216V20.2125C18.4397 20.6194 18.5484 20.9372 18.7603 21.1688C18.9731 21.4013 19.2666 21.5156 19.6359 21.5156C20.0484 21.5156 20.3588 21.4069 20.565 21.1903C20.7741 20.97 20.8763 20.6456 20.8763 20.2125V19.9969H20.025V20.1891C20.025 20.4375 19.9959 20.5978 19.9416 20.67C19.8872 20.7431 19.7916 20.7788 19.6538 20.7788C19.5206 20.7788 19.4288 20.7375 19.3725 20.6513C19.3191 20.565 19.2909 20.4113 19.2909 20.1891V19.3969H20.8744V18.3225C20.8744 17.9231 20.7731 17.6166 20.5706 17.4038C20.3691 17.19 20.0766 17.0831 19.6978 17.0831ZM20.025 18.7388H19.2928V18.3141C19.2928 18.1378 19.3209 18.0113 19.3781 17.9372C19.4363 17.8584 19.5309 17.8219 19.6631 17.8219C19.7888 17.8219 19.8825 17.8584 19.9378 17.9372C19.9969 18.0113 20.0259 18.1378 20.0259 18.3141L20.025 18.7388Z" fill="white"/>
</g>
<defs>
<clipPath id="clip0_52_6685">
<rect width="30" height="30" fill="white"/>
</clipPath>
</defs>
</svg>
