<svg width="30" height="30" viewBox="0 0 30 30" fill="none" xmlns="http://www.w3.org/2000/svg">
<g clip-path="url(#clip0_52_6684)">
<path d="M15 0C6.71572 0 0 6.71572 0 15C0 23.2843 6.71572 30 15 30C23.2843 30 30 23.2843 30 15C30 6.71572 23.2843 0 15 0ZM22.99 20.0918H21.0866C20.8804 20.092 20.6769 20.0458 20.4911 19.9565C20.3053 19.8673 20.1419 19.7372 20.0133 19.5762C19.4425 18.8595 18.3179 17.5888 17.1372 17.043C17.0688 17.011 16.9935 16.9967 16.9181 17.0015C16.8428 17.0064 16.7698 17.0301 16.7061 17.0706C16.6423 17.111 16.5898 17.1669 16.5534 17.233C16.5169 17.2992 16.4977 17.3734 16.4976 17.4489V19.3314C16.4976 19.4313 16.478 19.5301 16.4398 19.6224C16.4016 19.7146 16.3456 19.7985 16.275 19.8691C16.2044 19.9397 16.1206 19.9957 16.0284 20.0339C15.9361 20.0721 15.8372 20.0918 15.7374 20.0918H14.8573C13.7127 20.0918 11.2479 19.3951 9.28389 16.534C7.61045 14.0965 6.86449 12.2075 6.42949 10.6758C6.4042 10.5861 6.40006 10.4917 6.41739 10.4C6.43473 10.3084 6.47306 10.222 6.52939 10.1477C6.58572 10.0733 6.65851 10.0131 6.74205 9.97161C6.82558 9.93014 6.9176 9.9086 7.01086 9.90867H8.93637C9.12847 9.90851 9.31549 9.97035 9.46963 10.085C9.62376 10.1997 9.73676 10.361 9.79184 10.5451C10.1499 11.7427 11.0773 14.3261 12.7167 15.6126C12.7666 15.652 12.8267 15.6765 12.89 15.6834C12.9533 15.6903 13.0172 15.6792 13.0745 15.6515C13.1317 15.6237 13.1801 15.5804 13.2139 15.5265C13.2477 15.4726 13.2657 15.4102 13.2657 15.3466V12.331C13.2657 11.735 13.0075 11.1388 12.6043 10.6728C12.5462 10.606 12.5086 10.5238 12.4959 10.4362C12.4832 10.3486 12.496 10.2591 12.5327 10.1785C12.5694 10.098 12.6286 10.0297 12.703 9.98175C12.7775 9.93385 12.8642 9.90838 12.9527 9.90838H15.9214C16.0743 9.90838 16.2209 9.9691 16.329 10.0772C16.4371 10.1853 16.4979 10.3319 16.4979 10.4848V14.5468C16.4979 14.6056 16.5141 14.6632 16.5447 14.7135C16.5753 14.7637 16.6191 14.8045 16.6714 14.8315C16.7236 14.8584 16.7823 14.8705 16.8409 14.8663C16.8996 14.8622 16.956 14.8419 17.0039 14.8079C17.5488 14.42 18.0155 13.8469 18.4448 13.2028C18.985 12.3926 19.6443 11.0532 19.975 10.3581C20.039 10.2235 20.1399 10.1097 20.2659 10.0301C20.392 9.95046 20.538 9.9082 20.6871 9.9082H22.7871C22.8748 9.90817 22.961 9.93052 23.0377 9.97316C23.1143 10.0158 23.1788 10.0773 23.225 10.1518C23.2712 10.2263 23.2976 10.3114 23.3017 10.399C23.3058 10.4866 23.2875 10.5738 23.2484 10.6523C22.7185 11.7152 21.6864 13.6651 20.7151 14.8091C20.5761 14.9736 20.508 15.1866 20.5258 15.4012C20.5437 15.6159 20.646 15.8147 20.8102 15.954C21.4433 16.495 22.4317 17.495 23.4973 19.1608C23.556 19.252 23.5892 19.3573 23.5932 19.4657C23.5972 19.5741 23.5719 19.6816 23.52 19.7769C23.4681 19.8721 23.3915 19.9517 23.2982 20.0071C23.205 20.0625 23.0985 20.0918 22.99 20.0918Z" fill="white"/>
</g>
<defs>
<clipPath id="clip0_52_6684">
<rect width="30" height="30" fill="white"/>
</clipPath>
</defs>
</svg>
