<svg width="37" height="37" viewBox="0 0 37 37" fill="none" xmlns="http://www.w3.org/2000/svg">
<g clip-path="url(#clip0_676_4428)">
<path d="M11.6018 20.3743H12.7927V26.3926H13.9444V20.3743H15.1353V19.3522H11.6018V20.3743Z" fill="#222325"/>
<path d="M17.4789 25.1427C17.3818 25.2548 17.2778 25.3473 17.161 25.4202C17.0465 25.4942 16.9505 25.53 16.8754 25.53C16.7806 25.53 16.71 25.5022 16.6649 25.4479C16.6233 25.3924 16.6025 25.3045 16.6025 25.1808V21.1964H15.5815V25.5392C15.5815 25.8491 15.6428 26.0792 15.7608 26.2342C15.8822 26.3902 16.0579 26.4654 16.2949 26.4654C16.4857 26.4654 16.6834 26.4111 16.8893 26.3001C17.0939 26.1914 17.2893 26.0295 17.4789 25.8191V26.3891H18.4999V21.1941H17.4789V25.1427Z" fill="#222325"/>
<path d="M21.2103 21.1339C21.0519 21.1339 20.8947 21.1744 20.7386 21.2577C20.5848 21.3386 20.4403 21.46 20.3004 21.6196V19.3522H19.2678V26.3937H20.3004V25.9948C20.4333 26.1544 20.5802 26.2712 20.7363 26.3463C20.8924 26.4226 21.0693 26.4585 21.2704 26.4585C21.5734 26.4585 21.8069 26.3625 21.9642 26.1659C22.1238 25.9694 22.2047 25.6884 22.2047 25.3207V22.4382C22.2047 22.0127 22.1214 21.6889 21.948 21.4669C21.7804 21.2449 21.5341 21.1339 21.2103 21.1339ZM21.156 25.175C21.156 25.3427 21.1248 25.4606 21.0658 25.5323C21.0068 25.6063 20.9155 25.6422 20.7906 25.6422C20.7039 25.6422 20.6229 25.6237 20.5443 25.5855C20.4657 25.5497 20.3848 25.4849 20.3015 25.4028V22.1665C20.372 22.0948 20.4414 22.0416 20.5119 22.0081C20.5836 21.9734 20.6542 21.9583 20.7282 21.9583C20.8646 21.9583 20.9721 22.0034 21.0473 22.0936C21.1201 22.1838 21.156 22.3179 21.156 22.4925V25.175Z" fill="#222325"/>
<path d="M18.352 14.0588C18.5081 14.0588 18.6306 14.0149 18.7231 13.9293C18.8145 13.8403 18.8607 13.7189 18.8607 13.5674V10.4479C18.8607 10.323 18.8145 10.2212 18.7197 10.1438C18.626 10.0675 18.5035 10.0293 18.352 10.0293C18.2109 10.0293 18.0965 10.0663 18.0097 10.1438C17.923 10.2212 17.8779 10.323 17.8779 10.4479V13.5651C17.8779 13.7212 17.9207 13.8415 18.0016 13.9293C18.0826 14.0161 18.1982 14.0588 18.352 14.0588Z" fill="#222325"/>
<path d="M18.5 0C8.28337 0 0 8.28222 0 18.5C0 28.7178 8.28337 37 18.5 37C28.7166 37 37 28.7166 37 18.5C37 8.28337 28.7166 0 18.5 0ZM20.9651 9.18294H22.1133V13.5697C22.1133 13.705 22.1399 13.8033 22.1873 13.8634C22.2335 13.9247 22.3133 13.9548 22.4208 13.9548C22.5041 13.9548 22.6116 13.9143 22.7411 13.8345C22.8695 13.7548 22.9886 13.6518 23.0949 13.5258V9.18294H24.2454V14.9052H23.0949V14.2739C22.8845 14.5063 22.6648 14.6855 22.4336 14.8058C22.2046 14.9272 21.9826 14.9885 21.7652 14.9885C21.4982 14.9885 21.2993 14.9029 21.164 14.7329C21.0299 14.563 20.9628 14.3074 20.9628 13.9652V9.18294H20.9651ZM16.6939 10.4918C16.6939 10.0478 16.8477 9.69516 17.1588 9.43269C17.4675 9.17022 17.8849 9.03841 18.4063 9.03841C18.8816 9.03841 19.2724 9.17716 19.5765 9.45466C19.8794 9.731 20.032 10.0883 20.032 10.5242V13.4807C20.032 13.9698 19.8829 14.3537 19.5857 14.6323C19.2851 14.911 18.8769 15.0497 18.3532 15.0497C17.8513 15.0497 17.4478 14.9064 17.1449 14.6196C16.8442 14.3317 16.6939 13.9444 16.6939 13.4588V10.4918ZM13.5617 7.14794L14.4023 10.2478H14.4832L15.2822 7.14794H16.5991L15.0925 11.6862V14.9052H13.7975V11.8319L12.2563 7.14909C12.2551 7.14794 13.5617 7.14794 13.5617 7.14794ZM26.4041 27.9466C25.5647 28.7837 18.4965 28.8022 18.4965 28.8022C18.4965 28.8022 11.4272 28.7848 10.5866 27.9466C9.74487 27.106 9.74372 22.9712 9.74372 22.94C9.74372 22.9157 9.74603 18.7729 10.5866 17.9334C11.4284 17.0952 18.4965 17.0848 18.4965 17.0859C18.4965 17.0859 25.5658 17.0963 26.4041 17.9346C27.2459 18.7752 27.2563 22.9169 27.2563 22.9412C27.2563 22.94 27.2493 27.1037 26.4041 27.9466Z" fill="#222325"/>
<path d="M24.2939 21.0692C23.836 21.0692 23.4637 21.2102 23.1758 21.4947C22.8867 21.7791 22.7422 22.1457 22.7422 22.5966V24.9287C22.7422 25.4306 22.8763 25.8225 23.1376 26.1081C23.4001 26.3949 23.762 26.5359 24.2176 26.5359C24.7263 26.5359 25.109 26.4018 25.3634 26.1347C25.6213 25.863 25.7473 25.4629 25.7473 24.9287V24.6628H24.6974V24.8998C24.6974 25.2062 24.6616 25.404 24.5945 25.493C24.5274 25.5832 24.4095 25.6271 24.2395 25.6271C24.0753 25.6271 23.962 25.5762 23.8927 25.4699C23.8267 25.3635 23.7921 25.1739 23.7921 24.8998V23.9228H25.745V22.5977C25.745 22.1052 25.6201 21.7271 25.3703 21.4646C25.1217 21.201 24.761 21.0692 24.2939 21.0692ZM24.6974 23.1111H23.7944V22.5873C23.7944 22.37 23.8291 22.2139 23.8996 22.1225C23.9713 22.0254 24.0881 21.9803 24.2511 21.9803C24.406 21.9803 24.5217 22.0254 24.5899 22.1225C24.6627 22.2139 24.6986 22.37 24.6986 22.5873L24.6974 23.1111Z" fill="#222325"/>
</g>
<defs>
<clipPath id="clip0_676_4428">
<rect width="37" height="37" fill="white"/>
</clipPath>
</defs>
</svg>
