<svg width="37" height="37" viewBox="0 0 37 37" fill="none" xmlns="http://www.w3.org/2000/svg">
<g clip-path="url(#clip0_676_4427)">
<path d="M18.5 0C8.28273 0 0 8.28273 0 18.5C0 28.7173 8.28273 37 18.5 37C28.7173 37 37 28.7173 37 18.5C37 8.28273 28.7173 0 18.5 0ZM28.3544 24.7799H26.0068C25.7526 24.7802 25.5015 24.7231 25.2723 24.613C25.0431 24.5029 24.8417 24.3426 24.683 24.1439C23.979 23.2601 22.5921 21.6928 21.1359 21.0197C21.0515 20.9802 20.9586 20.9626 20.8657 20.9686C20.7727 20.9745 20.6828 21.0038 20.6042 21.0537C20.5255 21.1036 20.4608 21.1725 20.4158 21.2541C20.3709 21.3356 20.3472 21.4272 20.347 21.5203V23.8421C20.3471 23.9652 20.3228 24.0872 20.2757 24.201C20.2286 24.3147 20.1596 24.4181 20.0725 24.5052C19.9854 24.5923 19.8821 24.6614 19.7683 24.7085C19.6545 24.7556 19.5326 24.7799 19.4095 24.7799H18.324C16.9123 24.7799 13.8724 23.9206 11.4501 20.392C9.38622 17.3857 8.46621 15.0559 7.92971 13.1669C7.89852 13.0562 7.89341 12.9397 7.91479 12.8267C7.93616 12.7137 7.98344 12.6071 8.05292 12.5155C8.12239 12.4238 8.21216 12.3495 8.31519 12.2983C8.41822 12.2472 8.5317 12.2206 8.64673 12.2207H11.0215C11.2584 12.2205 11.4891 12.2968 11.6792 12.4382C11.8693 12.5796 12.0087 12.7786 12.0766 13.0056C12.5182 14.4826 13.662 17.6689 15.6839 19.2555C15.7455 19.3041 15.8196 19.3344 15.8976 19.3429C15.9757 19.3513 16.0545 19.3377 16.1252 19.3035C16.1958 19.2692 16.2554 19.2158 16.2971 19.1493C16.3388 19.0828 16.361 19.0059 16.3611 18.9275V15.2082C16.3611 14.4732 16.0425 13.7378 15.5453 13.1631C15.4737 13.0807 15.4273 12.9794 15.4116 12.8713C15.396 12.7632 15.4117 12.6529 15.457 12.5535C15.5023 12.4542 15.5752 12.3699 15.6671 12.3108C15.7589 12.2517 15.8658 12.2203 15.975 12.2203H19.6364C19.825 12.2203 20.0058 12.2952 20.1391 12.4285C20.2725 12.5619 20.3474 12.7427 20.3474 12.9312V17.941C20.3474 18.0135 20.3674 18.0847 20.4051 18.1466C20.4429 18.2085 20.4969 18.2589 20.5614 18.2921C20.6258 18.3254 20.6982 18.3403 20.7705 18.3351C20.8428 18.33 20.9124 18.3051 20.9715 18.263C21.6436 17.7846 22.2191 17.0779 22.7486 16.2835C23.4149 15.2842 24.2279 13.6323 24.6358 12.775C24.7147 12.609 24.8392 12.4687 24.9946 12.3705C25.1501 12.2722 25.3302 12.2201 25.5141 12.2201H28.1041C28.2123 12.2201 28.3186 12.2476 28.4131 12.3002C28.5076 12.3528 28.5872 12.4287 28.6441 12.5206C28.7011 12.6125 28.7337 12.7174 28.7387 12.8255C28.7438 12.9335 28.7212 13.041 28.673 13.1379C28.0195 14.4488 26.7465 16.8536 25.5486 18.2646C25.3772 18.4675 25.2932 18.7301 25.3152 18.9949C25.3372 19.2596 25.4633 19.5048 25.6659 19.6766C26.4468 20.3438 27.6657 21.5772 28.98 23.6317C29.0525 23.7441 29.0933 23.874 29.0983 24.0077C29.1032 24.1414 29.072 24.274 29.008 24.3915C28.944 24.509 28.8495 24.607 28.7345 24.6754C28.6195 24.7437 28.4882 24.7798 28.3544 24.7799Z" fill="#222325"/>
</g>
<defs>
<clipPath id="clip0_676_4427">
<rect width="37" height="37" fill="white"/>
</clipPath>
</defs>
</svg>
