<svg width="221" height="72" viewBox="0 0 221 72" fill="none" xmlns="http://www.w3.org/2000/svg">
<g clip-path="url(#clip0_477_10008)">
<path d="M23.2071 41.856L16.1828 31.5986H8.43023V41.856H0V5.03052H15.7672C18.9935 5.03052 21.7942 5.57438 24.1694 6.6621C26.5447 7.74983 28.3744 9.29254 29.6586 11.2902C30.9394 13.2915 31.5797 15.6588 31.5797 18.3922C31.5797 21.1257 30.9295 23.4848 29.6289 25.4695C28.3284 27.4507 26.4812 28.9675 24.0874 30.0199L32.2556 41.8507L23.2071 41.856ZM21.0747 13.6317C19.7567 12.5322 17.8315 11.9824 15.2991 11.9824H8.43023V24.8179H15.2991C17.8292 24.8179 19.7544 24.257 21.0747 23.1351C22.395 22.0133 23.054 20.4347 23.0517 18.3993C23.0517 16.3274 22.3927 14.7382 21.0747 13.6317Z" fill="white"/>
<path d="M64.9385 30.0201H43.7608C44.098 31.7063 45.0674 33.1952 46.4661 34.175C47.8877 35.1933 49.6569 35.7018 51.7736 35.7006C53.095 35.725 54.4094 35.5023 55.6508 35.0437C56.8263 34.572 57.8956 33.8651 58.7944 32.9654L63.1134 37.7013C60.4763 40.7525 56.6259 42.2782 51.5623 42.2782C48.4046 42.2782 45.6103 41.6554 43.1792 40.41C40.7481 39.1645 38.8753 37.437 37.5608 35.2274C36.2428 33.0178 35.5832 30.5104 35.582 27.7051C35.582 24.934 36.2329 22.4348 37.5346 20.2076C38.8106 18.0048 40.6653 16.2023 42.8928 15.0003C45.1655 13.7548 47.7066 13.1321 50.5161 13.1321C53.2569 13.1321 55.7369 13.7283 57.9561 14.9208C60.1497 16.0888 61.9653 17.8692 63.1868 20.0504C64.4512 22.2789 65.084 24.8652 65.0852 27.8093C65.091 27.9153 65.0421 28.6522 64.9385 30.0201ZM45.9456 20.9192C44.6975 21.9693 43.9342 23.4072 43.656 25.233H57.4531C57.1737 23.4449 56.4105 22.0152 55.1635 20.9439C53.9165 19.8727 52.3901 19.3382 50.5842 19.3406C48.74 19.3406 47.1938 19.8668 45.9456 20.9192V20.9192Z" fill="white"/>
<path d="M77.8038 41.3034C75.1143 40.5135 72.955 39.4876 71.3262 38.2256L74.1869 31.8088C75.8828 33.0342 77.7628 33.9756 79.7547 34.5969C81.8403 35.2907 84.021 35.6482 86.2166 35.6564C88.6093 35.6564 90.3779 35.2968 91.5224 34.5775C92.6669 33.8582 93.2398 32.9024 93.2409 31.7099C93.2476 31.2919 93.1597 30.878 92.9838 30.4997C92.8079 30.1214 92.5488 29.7888 92.2262 29.5273C91.4556 28.8975 90.572 28.4239 89.624 28.1324C88.5656 27.7792 87.1347 27.3937 85.3311 26.9758C83.0233 26.4474 80.7489 25.7799 78.5199 24.9769C76.7573 24.315 75.1904 23.2102 73.9668 21.7667C72.7012 20.294 72.0684 18.3299 72.0684 15.8743C72.0478 13.8059 72.6462 11.7796 73.7852 10.0613C74.9286 8.32494 76.6541 6.9488 78.9618 5.93288C81.2694 4.91697 84.0882 4.40842 87.4182 4.40724C89.714 4.40486 92.0015 4.68714 94.2294 5.24776C96.2851 5.74057 98.2513 6.55754 100.056 7.66866L97.4499 14.1314C94.0851 12.2032 90.7202 11.2391 87.3553 11.2391C84.9964 11.2391 83.2534 11.6246 82.1264 12.3957C80.9993 13.1667 80.4352 14.1838 80.434 15.447C80.434 16.7101 81.0849 17.6483 82.3866 18.2616C83.6883 18.8749 85.674 19.48 88.3438 20.0769C90.6516 20.6053 92.9261 21.2728 95.1551 22.0757C96.9077 22.7286 98.4727 23.811 99.7099 25.2259C100.977 26.6632 101.609 28.6097 101.608 31.0653C101.621 33.1206 101.012 35.1307 99.8618 36.8253C98.6975 38.5605 96.9545 39.9373 94.6329 40.9555C92.3112 41.9738 89.4843 42.4823 86.152 42.4812C83.3281 42.4906 80.5173 42.094 77.8038 41.3034V41.3034Z" fill="white"/>
<path d="M151.011 16.2628C153.075 18.35 154.108 21.4801 154.108 25.6533V41.8562H145.99V26.9158C145.99 24.6709 145.531 22.9964 144.612 21.8922C143.693 20.7879 142.383 20.2353 140.682 20.2341C138.775 20.2341 137.266 20.8568 136.156 22.1023C135.045 23.3478 134.49 25.1977 134.491 27.6522V41.8562H126.374V26.9158C126.374 22.4625 124.605 20.2353 121.068 20.2341C119.193 20.2341 117.701 20.8568 116.592 22.1023C115.482 23.3478 114.927 25.1977 114.927 27.6522V41.8562H106.81V13.5541H114.564V16.8155C115.613 15.6173 116.922 14.6806 118.389 14.0785C119.967 13.4344 121.656 13.1127 123.357 13.1321C125.208 13.1055 127.04 13.511 128.71 14.3169C130.283 15.0854 131.615 16.2774 132.561 17.762C133.718 16.2813 135.213 15.1074 136.919 14.3416C138.727 13.5238 140.689 13.1112 142.67 13.1321C146.171 13.1321 148.951 14.1757 151.011 16.2628Z" fill="white"/>
<path d="M161.808 8.29194C161.365 7.87488 161.012 7.37007 160.77 6.80897C160.529 6.24786 160.404 5.64247 160.404 5.03054C160.404 4.4186 160.529 3.81321 160.77 3.25211C161.012 2.691 161.365 2.18618 161.808 1.76912C162.747 0.893288 163.961 0.454793 165.451 0.453616C166.942 0.452439 168.155 0.873278 169.093 1.71615C169.542 2.10534 169.9 2.59034 170.142 3.13626C170.383 3.68218 170.502 4.27544 170.49 4.87338C170.508 5.50666 170.393 6.1367 170.153 6.72157C169.912 7.30645 169.55 7.83275 169.093 8.26546C168.161 9.16013 166.947 9.60746 165.451 9.60746C163.955 9.60746 162.741 9.16895 161.808 8.29194ZM161.392 13.554H169.51V41.8561H161.392V13.554Z" fill="white"/>
<path d="M177.052 2.82153H185.168V41.856H177.052V2.82153Z" fill="white"/>
<path d="M219.988 30.0201H198.811C199.147 31.7066 200.117 33.1958 201.516 34.175C202.937 35.1933 204.707 35.7018 206.823 35.7006C208.145 35.725 209.459 35.5023 210.701 35.0437C211.876 34.572 212.945 33.8651 213.844 32.9654L218.163 37.7013C215.526 40.7525 211.676 42.2782 206.612 42.2782C203.454 42.2782 200.66 41.6554 198.229 40.41C195.798 39.1645 193.925 37.437 192.609 35.2274C191.29 33.0178 190.631 30.5104 190.632 27.7051C190.632 24.934 191.283 22.4348 192.584 20.2076C193.86 18.0043 195.715 16.2018 197.943 15.0003C200.214 13.7548 202.755 13.1321 205.566 13.1321C208.307 13.1321 210.787 13.7283 213.006 14.9208C215.199 16.0888 217.015 17.8692 218.237 20.0504C219.501 22.2789 220.134 24.8652 220.135 27.8093C220.141 27.9153 220.092 28.6522 219.988 30.0201ZM200.995 20.9192C199.747 21.9693 198.984 23.4072 198.706 25.233H212.503C212.225 23.4449 211.462 22.0152 210.215 20.9439C208.968 19.8727 207.442 19.3382 205.636 19.3406C203.79 19.3406 202.244 19.8668 200.995 20.9192V20.9192Z" fill="white"/>
<path d="M5.6 64.6094C4.896 64.6094 4.256 64.4921 3.68 64.2574C3.104 64.0228 2.608 63.6761 2.192 63.2174C1.776 62.7588 1.45067 62.1934 1.216 61.5214C0.992 60.8388 0.88 60.0601 0.88 59.1854V58.4174C0.88 57.5854 0.992 56.8441 1.216 56.1934C1.45067 55.5428 1.776 54.9934 2.192 54.5454C2.608 54.0868 3.104 53.7401 3.68 53.5054C4.26667 53.2708 4.90667 53.1534 5.6 53.1534C6.24 53.1534 6.81067 53.2441 7.312 53.4254C7.824 53.6068 8.26133 53.8574 8.624 54.1774C8.99733 54.4868 9.296 54.8548 9.52 55.2814C9.75467 55.6974 9.91467 56.1508 10 56.6414H8.4C8.31467 56.3428 8.192 56.0654 8.032 55.8094C7.88267 55.5534 7.69067 55.3294 7.456 55.1374C7.232 54.9454 6.96 54.7961 6.64 54.6894C6.33067 54.5828 5.984 54.5294 5.6 54.5294C5.152 54.5294 4.73067 54.6148 4.336 54.7854C3.952 54.9454 3.62133 55.1908 3.344 55.5214C3.06667 55.8521 2.848 56.2574 2.688 56.7374C2.528 57.2174 2.448 57.7774 2.448 58.4174V59.1854C2.448 59.8574 2.528 60.4494 2.688 60.9614C2.848 61.4628 3.06667 61.8841 3.344 62.2254C3.632 62.5561 3.968 62.8068 4.352 62.9774C4.736 63.1481 5.152 63.2334 5.6 63.2334C6.37867 63.2334 6.99733 63.0254 7.456 62.6094C7.92533 62.1828 8.24 61.6334 8.4 60.9614H10C9.91467 61.4948 9.75467 61.9854 9.52 62.4334C9.296 62.8708 8.99733 63.2548 8.624 63.5854C8.26133 63.9054 7.824 64.1561 7.312 64.3374C6.81067 64.5188 6.24 64.6094 5.6 64.6094ZM22.2387 53.2814H29.1988V54.6574H23.7427V58.0334H28.2387V59.4094H23.7427V63.1054H29.1988V64.4814H22.2387V53.2814ZM41.4319 53.2814H45.1919C46.5785 53.2814 47.6025 53.5908 48.2639 54.2094C48.9359 54.8174 49.2719 55.6441 49.2719 56.6894C49.2719 57.4361 49.0959 58.0761 48.7439 58.6094C48.4025 59.1428 47.8745 59.5374 47.1599 59.7934L49.5919 64.4814H47.8959L45.6879 60.0814C45.6025 60.0921 45.5172 60.0974 45.4319 60.0974C45.3572 60.0974 45.2772 60.0974 45.1919 60.0974H42.9359V64.4814H41.4319V53.2814ZM45.1119 58.7214C46.0399 58.7214 46.7012 58.5454 47.0959 58.1934C47.5012 57.8414 47.7039 57.3401 47.7039 56.6894C47.7039 56.0494 47.5012 55.5534 47.0959 55.2014C46.6905 54.8388 46.0292 54.6574 45.1119 54.6574H42.9359V58.7214H45.1119ZM64.0455 54.6574H60.4775V53.2814H69.1175V54.6574H65.5495V64.4814H64.0455V54.6574ZM81.0867 53.2814H82.5907V64.4814H81.0867V53.2814ZM95.5112 53.2814H102.471V54.6574H97.0152V58.1134H101.511V59.4894H97.0152V64.4814H95.5112V53.2814ZM114.52 53.2814H116.024V64.4814H114.52V53.2814ZM128.944 53.2814H135.904V54.6574H130.448V58.0334H134.944V59.4094H130.448V63.1054H135.904V64.4814H128.944V53.2814ZM148.137 53.2814H151.737C153.391 53.2814 154.655 53.7241 155.529 54.6094C156.415 55.4841 156.857 56.7481 156.857 58.4014V59.2014C156.857 60.9188 156.415 62.2308 155.529 63.1374C154.644 64.0334 153.38 64.4814 151.737 64.4814H148.137V53.2814ZM151.657 63.1054C152.852 63.1054 153.753 62.7908 154.361 62.1614C154.98 61.5214 155.289 60.5348 155.289 59.2014V58.4014C155.289 57.1641 154.98 56.2308 154.361 55.6014C153.743 54.9721 152.841 54.6574 151.657 54.6574H149.641V63.1054H151.657Z" fill="white"/>
</g>
<defs>
<clipPath id="clip0_477_10008">
<rect width="220.136" height="71.0926" fill="white" transform="translate(0 0.453613)"/>
</clipPath>
</defs>
</svg>
