<svg width="180" height="57" viewBox="0 0 180 57" fill="none" xmlns="http://www.w3.org/2000/svg">
<g clip-path="url(#clip0_499_10395)">
<path d="M114.934 47.5723H117.727C119.009 47.5723 119.99 47.9157 120.669 48.6026C121.356 49.2812 121.699 50.2619 121.699 51.5447V52.1654C121.699 53.4978 121.356 54.5157 120.669 55.2191C119.982 55.9143 119.001 56.2619 117.727 56.2619H114.934V47.5723ZM117.665 55.1943C118.592 55.1943 119.291 54.9502 119.763 54.4619C120.243 53.9653 120.483 53.1998 120.483 52.1654V51.5447C120.483 50.5847 120.243 49.8605 119.763 49.3723C119.283 48.884 118.583 48.6398 117.665 48.6398H116.1V55.1943H117.665Z" fill="white"/>
<path d="M100.042 47.5723H105.442V48.6398H101.209V51.2592H104.698V52.3267H101.209V55.1943H105.442V56.2619H100.042V47.5723Z" fill="white"/>
<path d="M88.8511 47.5723H90.018V56.2619H88.8511V47.5723Z" fill="white"/>
<path d="M74.103 47.5723H79.503V48.6398H75.2699V51.3212H78.7582V52.3888H75.2699V56.2619H74.103V47.5723Z" fill="white"/>
<path d="M62.9116 47.5723H64.0785V56.2619H62.9116V47.5723Z" fill="white"/>
<path d="M49.6901 48.6398H46.9219V47.5723H53.6253V48.6398H50.857V56.2619H49.6901V48.6398Z" fill="white"/>
<path d="M32.145 47.5723H35.0623C36.1381 47.5723 36.9326 47.8123 37.4457 48.2923C37.9671 48.764 38.2278 49.4054 38.2278 50.2164C38.2278 50.7957 38.0912 51.2923 37.8181 51.706C37.5533 52.1198 37.1436 52.426 36.5891 52.6247L38.476 56.2619H37.1602L35.4471 52.8481C35.3809 52.8564 35.3147 52.8605 35.2485 52.8605C35.1905 52.8605 35.1285 52.8605 35.0623 52.8605H33.3119V56.2619H32.145V47.5723ZM35.0002 51.7929C35.7202 51.7929 36.2333 51.6564 36.5395 51.3833C36.854 51.1102 37.0112 50.7212 37.0112 50.2164C37.0112 49.7198 36.854 49.335 36.5395 49.0619C36.225 48.7805 35.7119 48.6398 35.0002 48.6398H33.3119V51.7929H35.0002Z" fill="white"/>
<path d="M17.2539 47.5723H22.6539V48.6398H18.4208V51.2592H21.9091V52.3267H18.4208V55.1943H22.6539V56.2619H17.2539V47.5723Z" fill="white"/>
<path d="M4.34467 56.3614C3.79847 56.3614 3.30192 56.2704 2.85502 56.0883C2.40813 55.9062 2.0233 55.6373 1.70054 55.2814C1.37779 54.9255 1.12537 54.4869 0.943306 53.9655C0.769513 53.4359 0.682617 52.8317 0.682617 52.1531V51.5573C0.682617 50.9118 0.769513 50.3366 0.943306 49.8318C1.12537 49.3269 1.37779 48.9007 1.70054 48.5531C2.0233 48.1973 2.40813 47.9283 2.85502 47.7462C3.31019 47.5642 3.80675 47.4731 4.34467 47.4731C4.84122 47.4731 5.28398 47.5435 5.67295 47.6842C6.07019 47.8249 6.4095 48.0193 6.69087 48.2676C6.98053 48.5076 7.21225 48.7931 7.38604 49.1242C7.56811 49.4469 7.69225 49.7987 7.75846 50.1793H6.51708C6.45087 49.9476 6.3557 49.7324 6.23156 49.5338C6.1157 49.3352 5.96674 49.1614 5.78467 49.0124C5.61088 48.8635 5.39984 48.7476 5.15157 48.6649C4.91157 48.5821 4.6426 48.5407 4.34467 48.5407C3.99709 48.5407 3.67019 48.6069 3.36399 48.7393C3.06606 48.8635 2.80951 49.0538 2.59434 49.3104C2.37916 49.5669 2.20951 49.8814 2.08537 50.2538C1.96123 50.6262 1.89916 51.0607 1.89916 51.5573V52.1531C1.89916 52.6745 1.96123 53.1338 2.08537 53.5311C2.20951 53.92 2.37916 54.2469 2.59434 54.5117C2.81778 54.7683 3.07847 54.9628 3.3764 55.0952C3.67433 55.2276 3.99709 55.2938 4.34467 55.2938C4.94881 55.2938 5.42881 55.1324 5.78467 54.8097C6.14881 54.4786 6.39294 54.0524 6.51708 53.5311H7.75846C7.69225 53.9448 7.56811 54.3255 7.38604 54.6731C7.21225 55.0124 6.98053 55.3104 6.69087 55.5669C6.4095 55.8152 6.07019 56.0097 5.67295 56.1504C5.28398 56.291 4.84122 56.3614 4.34467 56.3614Z" fill="white"/>
<path d="M18.0055 38.9039L12.5556 30.9456H6.54067V38.9039H0V10.3325H12.2331C14.7363 10.3325 16.9093 10.7545 18.7521 11.5984C20.5949 12.4423 22.0145 13.6393 23.0109 15.1892C24.0046 16.7419 24.5014 18.5786 24.5014 20.6993C24.5014 22.8201 23.9969 24.6504 22.9879 26.1903C21.9788 27.7275 20.5457 28.9043 18.6884 29.7208L25.0258 38.8998L18.0055 38.9039ZM16.351 17.0058C15.3284 16.1528 13.8347 15.7262 11.87 15.7262H6.54067V25.6848H11.87C13.8329 25.6848 15.3266 25.2496 16.351 24.3792C17.3754 23.5088 17.8867 22.284 17.8849 20.7048C17.8849 19.0973 17.3736 17.8643 16.351 17.0058Z" fill="white"/>
<path d="M50.3829 29.7209H33.952C34.2136 31.0292 34.9658 32.1844 36.0509 32.9445C37.1539 33.7345 38.5265 34.1291 40.1688 34.1282C41.194 34.1471 42.2139 33.9743 43.177 33.6185C44.089 33.2525 44.9186 32.7041 45.616 32.006L48.967 35.6804C46.9209 38.0478 43.9335 39.2314 40.0049 39.2314C37.555 39.2314 35.387 38.7483 33.5008 37.782C31.6146 36.8157 30.1616 35.4754 29.1417 33.761C28.1191 32.0467 27.6073 30.1013 27.6064 27.9248C27.6064 25.7748 28.1114 23.8358 29.1214 22.1078C30.1114 20.3987 31.5503 19.0003 33.2786 18.0676C35.0419 17.1013 37.0134 16.6182 39.1932 16.6182C41.3197 16.6182 43.2438 17.0808 44.9656 18.006C46.6675 18.9121 48.0761 20.2935 49.0239 21.9858C50.0049 23.7148 50.4959 25.7214 50.4968 28.0056C50.5013 28.0878 50.4633 28.6596 50.3829 29.7209ZM35.6471 22.6599C34.6787 23.4746 34.0866 24.5902 33.8707 26.0068H44.5753C44.3585 24.6194 43.7664 23.5102 42.7989 22.6791C41.8314 21.8479 40.6471 21.4333 39.2461 21.4351C37.8152 21.4351 36.6155 21.8434 35.6471 22.6599V22.6599Z" fill="white"/>
<path d="M60.3646 38.4754C58.2779 37.8625 56.6026 37.0665 55.3389 36.0874L57.5584 31.1089C58.8742 32.0596 60.3328 32.79 61.8782 33.2721C63.4964 33.8103 65.1883 34.0877 66.8917 34.0941C68.7481 34.0941 70.1203 33.8151 71.0083 33.257C71.8963 32.699 72.3407 31.9573 72.3416 31.0321C72.3468 30.7079 72.2786 30.3867 72.1421 30.0932C72.0057 29.7997 71.8046 29.5417 71.5544 29.3388C70.9565 28.8502 70.2709 28.4827 69.5354 28.2565C68.7143 27.9825 67.604 27.6834 66.2048 27.3592C64.4142 26.9492 62.6496 26.4313 60.9202 25.8083C59.5526 25.2947 58.3369 24.4376 57.3877 23.3176C56.4057 22.1751 55.9147 20.6512 55.9147 18.7459C55.8987 17.1412 56.3631 15.569 57.2467 14.2359C58.1338 12.8887 59.4726 11.821 61.263 11.0328C63.0534 10.2446 65.2404 9.85005 67.824 9.84913C69.6053 9.84729 71.38 10.0663 73.1086 10.5013C74.7035 10.8836 76.229 11.5175 77.6289 12.3795L75.6072 17.3937C72.9966 15.8977 70.3859 15.1497 67.7752 15.1497C65.945 15.1497 64.5927 15.4488 63.7183 16.047C62.8439 16.6453 62.4062 17.4344 62.4053 18.4144C62.4053 19.3944 62.9103 20.1223 63.9202 20.5982C64.9301 21.074 66.4708 21.5435 68.5422 22.0066C70.3327 22.4165 72.0974 22.9344 73.8267 23.5574C75.1865 24.064 76.4008 24.9037 77.3606 26.0015C78.3435 27.1167 78.8344 28.6269 78.8335 30.5321C78.8437 32.1267 78.3709 33.6862 77.4785 35.001C76.5752 36.3473 75.2229 37.4154 73.4216 38.2055C71.6203 38.9955 69.427 39.3901 66.8416 39.3891C64.6507 39.3965 62.4699 39.0888 60.3646 38.4754V38.4754Z" fill="white"/>
<path d="M117.164 19.0476C118.765 20.667 119.566 23.0955 119.566 26.3333V38.9045H113.268V27.3129C113.268 25.5711 112.912 24.2719 112.199 23.4152C111.486 22.5585 110.47 22.1297 109.15 22.1288C107.671 22.1288 106.5 22.6119 105.638 23.5782C104.776 24.5446 104.346 25.9799 104.347 27.8842V38.9045H98.0485V27.3129C98.0485 23.8577 96.6764 22.1297 93.932 22.1288C92.4776 22.1288 91.32 22.6119 90.4591 23.5782C89.5982 24.5446 89.1678 25.9799 89.1678 27.8842V38.9045H82.8696V16.9461H88.8859V19.4765C89.7 18.5468 90.7156 17.8201 91.8534 17.3529C93.0778 16.8532 94.3881 16.6036 95.7084 16.6186C97.1443 16.598 98.5655 16.9126 99.8616 17.5379C101.082 18.1341 102.115 19.059 102.849 20.2108C103.747 19.062 104.907 18.1512 106.23 17.5571C107.633 16.9226 109.155 16.6024 110.692 16.6186C113.409 16.6186 115.566 17.4283 117.164 19.0476Z" fill="white"/>
<path d="M125.541 12.8632C125.197 12.5396 124.923 12.1479 124.736 11.7126C124.548 11.2773 124.452 10.8076 124.452 10.3328C124.452 9.85801 124.548 9.38832 124.736 8.95298C124.923 8.51763 125.197 8.12597 125.541 7.80239C126.269 7.12286 127.211 6.78265 128.367 6.78174C129.524 6.78083 130.465 7.10734 131.193 7.76129C131.541 8.06324 131.819 8.43954 132.006 8.86309C132.194 9.28665 132.286 9.74694 132.277 10.2109C132.291 10.7022 132.202 11.191 132.015 11.6448C131.828 12.0986 131.548 12.5069 131.193 12.8426C130.47 13.5368 129.528 13.8838 128.367 13.8838C127.207 13.8838 126.264 13.5436 125.541 12.8632ZM125.218 16.9458H131.516V38.9042H125.218V16.9458Z" fill="white"/>
<path d="M137.368 8.61865H143.664V38.904H137.368V8.61865Z" fill="white"/>
<path d="M170.68 29.7209H154.249C154.51 31.0294 155.263 32.1848 156.348 32.9445C157.451 33.7345 158.824 34.1291 160.466 34.1282C161.491 34.1471 162.511 33.9743 163.474 33.6185C164.386 33.2525 165.216 32.7041 165.913 32.006L169.264 35.6804C167.218 38.0478 164.231 39.2314 160.302 39.2314C157.852 39.2314 155.684 38.7483 153.798 37.782C151.912 36.8157 150.458 35.4754 149.438 33.761C148.414 32.0467 147.903 30.1013 147.904 27.9248C147.904 25.7748 148.409 23.8358 149.419 22.1078C150.408 20.3984 151.847 18.9998 153.576 18.0676C155.338 17.1013 157.31 16.6182 159.491 16.6182C161.617 16.6182 163.541 17.0808 165.263 18.006C166.965 18.9121 168.373 20.2935 169.321 21.9858C170.302 23.7148 170.793 25.7214 170.794 28.0056C170.799 28.0878 170.761 28.6596 170.68 29.7209ZM155.944 22.6599C154.976 23.4746 154.384 24.5902 154.168 26.0068H164.873C164.657 24.6194 164.065 23.5102 163.098 22.6791C162.13 21.8479 160.946 21.4333 159.545 21.4351C158.113 21.4351 156.913 21.8434 155.944 22.6599V22.6599Z" fill="white"/>
<path d="M175.356 9.22187C174.716 9.22187 174.113 9.10238 173.548 8.86342C172.983 8.61359 172.489 8.2823 172.065 7.86954C171.652 7.45679 171.321 6.97343 171.071 6.41946C170.832 5.85464 170.713 5.25179 170.713 4.61093C170.713 3.98094 170.832 3.38352 171.071 2.8187C171.321 2.25387 171.652 1.76508 172.065 1.35232C172.489 0.939565 172.983 0.613704 173.548 0.374739C174.113 0.124913 174.716 0 175.356 0C175.997 0 176.6 0.124913 177.165 0.374739C177.73 0.613704 178.219 0.939565 178.631 1.35232C179.055 1.76508 179.386 2.25387 179.625 2.8187C179.875 3.38352 180 3.98094 180 4.61093C180 5.25179 179.875 5.85464 179.625 6.41946C179.386 6.97343 179.055 7.45679 178.631 7.86954C178.219 8.2823 177.73 8.61359 177.165 8.86342C176.6 9.10238 175.997 9.22187 175.356 9.22187ZM175.356 8.1954C175.845 8.1954 176.301 8.10308 176.725 7.91842C177.16 7.73377 177.534 7.47851 177.849 7.15265C178.175 6.82679 178.43 6.44662 178.615 6.01214C178.8 5.57765 178.892 5.11059 178.892 4.61093C178.892 4.11128 178.8 3.64421 178.615 3.20973C178.43 2.77525 178.175 2.39508 177.849 2.06922C177.534 1.74336 177.16 1.4881 176.725 1.30344C176.301 1.11879 175.845 1.02646 175.356 1.02646C174.868 1.02646 174.406 1.11879 173.972 1.30344C173.548 1.4881 173.173 1.74336 172.847 2.06922C172.532 2.39508 172.282 2.77525 172.098 3.20973C171.913 3.64421 171.821 4.11128 171.821 4.61093C171.821 5.11059 171.913 5.57765 172.098 6.01214C172.282 6.44662 172.532 6.82679 172.847 7.15265C173.173 7.47851 173.548 7.73377 173.972 7.91842C174.406 8.10308 174.868 8.1954 175.356 8.1954ZM173.629 2.16698H175.438C176.133 2.16698 176.633 2.30818 176.937 2.59059C177.252 2.86215 177.409 3.26947 177.409 3.81257C177.409 4.19275 177.333 4.50774 177.181 4.75757C177.029 5.0074 176.779 5.18662 176.432 5.29524L177.312 7.05489H176.204L175.47 5.44188H174.705V7.05489H173.629V2.16698ZM174.705 3.14456V4.48059H175.438C175.764 4.48059 175.986 4.42628 176.106 4.31766C176.225 4.19818 176.285 4.02981 176.285 3.81257C176.285 3.59533 176.225 3.4324 176.106 3.32378C175.986 3.2043 175.764 3.14456 175.438 3.14456H174.705Z" fill="white"/>
</g>
<defs>
<clipPath id="clip0_499_10395">
<rect width="180" height="56.3612" fill="white"/>
</clipPath>
</defs>
</svg>
